<?xml version="1.0" encoding="utf-8" standalone="no"?>
<!DOCTYPE svg PUBLIC "-//W3C//DTD SVG 1.1//EN"
  "http://www.w3.org/Graphics/SVG/1.1/DTD/svg11.dtd">
<svg xmlns:xlink="http://www.w3.org/1999/xlink" width="684pt" height="225.072pt" viewBox="0 0 684 225.072" xmlns="http://www.w3.org/2000/svg" version="1.1">
 <metadata>
  <rdf:RDF xmlns:dc="http://purl.org/dc/elements/1.1/" xmlns:cc="http://creativecommons.org/ns#" xmlns:rdf="http://www.w3.org/1999/02/22-rdf-syntax-ns#">
   <cc:Work>
    <dc:type rdf:resource="http://purl.org/dc/dcmitype/StillImage"/>
    <dc:format>image/svg+xml</dc:format>
    <dc:creator>
     <cc:Agent>
      <dc:title>Matplotlib v3.11.0, https://matplotlib.org/</dc:title>
     </cc:Agent>
    </dc:creator>
   </cc:Work>
  </rdf:RDF>
 </metadata>
 <defs>
  <style type="text/css">*{stroke-linejoin: round; stroke-linecap: butt}</style>
 </defs>
 <g id="figure_1">
  <g id="patch_1">
   <path d="M 0 225.072 
L 684 225.072 
L 684 -0 
L 0 -0 
z
" style="fill: #ffffff"/>
  </g>
  <g id="axes_1">
   <g id="patch_2">
    <path d="M 15.57 148.35024 
L 127.17 148.35024 
Q 128.844 148.35024 128.844 146.7702 
L 128.844 94.1022 
Q 128.844 92.52216 127.17 92.52216 
L 15.57 92.52216 
Q 13.896 92.52216 13.896 94.1022 
L 13.896 146.7702 
Q 13.896 148.35024 15.57 148.35024 
z
" clip-path="url(#pebb020fc3b)" style="fill: #b45309; fill-opacity: 0.070588; stroke: #b45309; stroke-width: 1.5; stroke-linejoin: miter"/>
   </g>
   <g id="patch_3">
    <path d="M 149.49 148.35024 
L 261.09 148.35024 
Q 262.764 148.35024 262.764 146.7702 
L 262.764 94.1022 
Q 262.764 92.52216 261.09 92.52216 
L 149.49 92.52216 
Q 147.816 92.52216 147.816 94.1022 
L 147.816 146.7702 
Q 147.816 148.35024 149.49 148.35024 
z
" clip-path="url(#pebb020fc3b)" style="fill: #2563a6; fill-opacity: 0.070588; stroke: #2563a6; stroke-width: 1.5; stroke-linejoin: miter"/>
   </g>
   <g id="patch_4">
    <path d="M 283.41 148.35024 
L 395.01 148.35024 
Q 396.684 148.35024 396.684 146.7702 
L 396.684 94.1022 
Q 396.684 92.52216 395.01 92.52216 
L 283.41 92.52216 
Q 281.736 92.52216 281.736 94.1022 
L 281.736 146.7702 
Q 281.736 148.35024 283.41 148.35024 
z
" clip-path="url(#pebb020fc3b)" style="fill: #2563a6; fill-opacity: 0.070588; stroke: #2563a6; stroke-width: 1.5; stroke-linejoin: miter"/>
   </g>
   <g id="patch_5">
    <path d="M 417.33 148.35024 
L 528.93 148.35024 
Q 530.604 148.35024 530.604 146.7702 
L 530.604 94.1022 
Q 530.604 92.52216 528.93 92.52216 
L 417.33 92.52216 
Q 415.656 92.52216 415.656 94.1022 
L 415.656 146.7702 
Q 415.656 148.35024 417.33 148.35024 
z
" clip-path="url(#pebb020fc3b)" style="fill: #2563a6; fill-opacity: 0.070588; stroke: #2563a6; stroke-width: 1.5; stroke-linejoin: miter"/>
   </g>
   <g id="patch_6">
    <path d="M 551.25 148.35024 
L 662.85 148.35024 
Q 664.524 148.35024 664.524 146.7702 
L 664.524 94.1022 
Q 664.524 92.52216 662.85 92.52216 
L 551.25 92.52216 
Q 549.576 92.52216 549.576 94.1022 
L 549.576 146.7702 
Q 549.576 148.35024 551.25 148.35024 
z
" clip-path="url(#pebb020fc3b)" style="fill: #b45309; fill-opacity: 0.070588; stroke: #b45309; stroke-width: 1.5; stroke-linejoin: miter"/>
   </g>
   <g id="text_1">
    <text style="font-size: 11px; font-family: 'DejaVu Sans'; fill: #19334b" transform="translate(45.940234 116.692977)">condition</text>
    <text style="font-size: 11px; font-family: 'DejaVu Sans'; fill: #19334b" transform="translate(60.343359 129.895126)">root</text>
   </g>
   <g id="text_2">
    <text style="font-size: 12px; font-family: 'DejaVu Sans'; text-anchor: middle" x="71.37" y="165.204" transform="rotate(-0 71.37 165.204)">0 hops</text>
   </g>
   <g id="patch_7">
    <path d="M 129.172588 120.4362 
Q 138.331792 120.4362 145.813946 120.4362 
" style="fill: none; stroke: #19334b; stroke-width: 1.5; stroke-linecap: round"/>
    <path d="M 141.013946 118.0362 
L 145.813946 120.4362 
L 141.013946 122.8362 
" style="fill: none; stroke: #19334b; stroke-width: 1.5; stroke-linecap: round"/>
   </g>
   <g id="text_3">
    <text style="font-size: 11px; font-family: 'DejaVu Sans'; fill: #19334b" transform="translate(154.469141 116.692548)">conditions_studies</text>
    <text style="font-size: 11px; font-family: 'DejaVu Sans'; fill: #19334b" transform="translate(162.615156 129.895555)">association row</text>
   </g>
   <g id="text_4">
    <text style="font-size: 12px; font-family: 'DejaVu Sans'; text-anchor: middle" x="205.29" y="165.204" transform="rotate(-0 205.29 165.204)">1 hops</text>
   </g>
   <g id="patch_8">
    <path d="M 263.092588 120.4362 
Q 272.251792 120.4362 279.733946 120.4362 
" style="fill: none; stroke: #19334b; stroke-width: 1.5; stroke-linecap: round"/>
    <path d="M 274.933946 118.0362 
L 279.733946 120.4362 
L 274.933946 122.8362 
" style="fill: none; stroke: #19334b; stroke-width: 1.5; stroke-linecap: round"/>
   </g>
   <g id="text_5">
    <text style="font-size: 11px; font-family: 'DejaVu Sans'; fill: #19334b" transform="translate(323.956094 116.692548)">study</text>
    <text style="font-size: 11px; font-family: 'DejaVu Sans'; fill: #19334b" transform="translate(328.366406 129.895555)">trial</text>
   </g>
   <g id="text_6">
    <text style="font-size: 12px; font-family: 'DejaVu Sans'; text-anchor: middle" x="339.21" y="165.204" transform="rotate(-0 339.21 165.204)">2 hops</text>
   </g>
   <g id="patch_9">
    <path d="M 397.012588 120.4362 
Q 406.171792 120.4362 413.653946 120.4362 
" style="fill: none; stroke: #19334b; stroke-width: 1.5; stroke-linecap: round"/>
    <path d="M 408.853946 118.0362 
L 413.653946 120.4362 
L 408.853946 122.8362 
" style="fill: none; stroke: #19334b; stroke-width: 1.5; stroke-linecap: round"/>
   </g>
   <g id="text_7">
    <text style="font-size: 11px; font-family: 'DejaVu Sans'; fill: #19334b" transform="translate(426.039687 116.692548)">sponsors_studies</text>
    <text style="font-size: 11px; font-family: 'DejaVu Sans'; fill: #19334b" transform="translate(430.455156 129.895555)">association row</text>
   </g>
   <g id="text_8">
    <text style="font-size: 12px; font-family: 'DejaVu Sans'; text-anchor: middle" x="473.13" y="165.204" transform="rotate(-0 473.13 165.204)">3 hops</text>
   </g>
   <g id="patch_10">
    <path d="M 530.932588 120.4362 
Q 540.091792 120.4362 547.573946 120.4362 
" style="fill: none; stroke: #19334b; stroke-width: 1.5; stroke-linecap: round"/>
    <path d="M 542.773946 118.0362 
L 547.573946 120.4362 
L 542.773946 122.8362 
" style="fill: none; stroke: #19334b; stroke-width: 1.5; stroke-linecap: round"/>
   </g>
   <g id="text_9">
    <text style="font-size: 11px; font-family: 'DejaVu Sans'; fill: #19334b" transform="translate(585.350781 116.692118)">sponsor</text>
    <text style="font-size: 11px; font-family: 'DejaVu Sans'; fill: #19334b" transform="translate(579.747656 129.895126)">candidate</text>
   </g>
   <g id="text_10">
    <text style="font-size: 12px; font-family: 'DejaVu Sans'; text-anchor: middle" x="607.05" y="165.204" transform="rotate(-0 607.05 165.204)">4 hops</text>
   </g>
   <g id="text_11">
    <text style="font-weight: 700; font-size: 17px; font-family: 'DejaVu Sans'; text-anchor: start" x="15.57" y="49.3344" transform="rotate(-0 15.57 49.3344)">Why the selected ID-GNN uses four layers</text>
   </g>
   <g id="text_12">
    <text style="font-size: 12px; font-family: 'DejaVu Sans'" transform="translate(15.57 195.568519)">Two hops reach the study, not the sponsor. Four hops permit a sponsor candidate; sampling may still miss it.</text>
    <text style="font-size: 12px; font-family: 'DejaVu Sans'" transform="translate(15.57 209.9718)">Every dated row must remain at or before the query cutoff. Static-row availability is an assumption.</text>
   </g>
  </g>
 </g>
 <defs>
  <clipPath id="pebb020fc3b">
   <rect x="7.2" y="7.2" width="669.6" height="210.672"/>
  </clipPath>
 </defs>
</svg>
