<svg xmlns="http://www.w3.org/2000/svg" width="1120" height="650" viewBox="0 0 1120 650" role="img" aria-labelledby="title desc">
<title id="title">Does SSL help? · isolate the initialization</title><desc id="desc">Matched architectures, nested label sets and paired seeds make the subtraction meaningful. This is an experimental design, not a new model. A sign change across tested budgets does not identify a universal threshold.</desc>
<defs><marker id="arrow" viewBox="0 0 10 10" refX="9" refY="5" markerWidth="6" markerHeight="6" orient="auto-start-reverse"><path d="M 0 0 L 10 5 L 0 10 z" fill="#65847f"/></marker></defs>
<rect width="1120" height="650" rx="18" fill="#fcfaf6"/>
<rect x="0" y="0" width="1120" height="6" rx="3" fill="#14766c"/>
<text x="34" y="45" font-family="DejaVu Sans,sans-serif" font-size="12" font-weight="bold" fill="#647b75">RELATIONAL LEARNING  /  MODEL &amp; INFORMATION FLOW</text>
<text x="34" y="83" font-family="DejaVu Sans,sans-serif" font-size="27" font-weight="bold" fill="#193a3a">Does SSL help? · isolate the initialization</text>
<text x="34" y="114" font-family="DejaVu Sans,sans-serif" font-size="16" font-weight="normal" fill="#526b66">Matched architectures, nested label sets and paired seeds make the subtraction meaningful.</text>
<path d="M 264 204 L 308 204" fill="none" stroke="#65847f" stroke-width="2" marker-end="url(#arrow)"/>
<path d="M 264 204 C 286.0 204, 286.0 343, 308 343" fill="none" stroke="#65847f" stroke-width="2" marker-end="url(#arrow)"/>
<path d="M 538 204 L 582 204" fill="none" stroke="#65847f" stroke-width="2" marker-end="url(#arrow)"/>
<path d="M 538 343 C 560.0 343, 560.0 204, 582 204" fill="none" stroke="#65847f" stroke-width="2" marker-end="url(#arrow)"/>
<path d="M 697 294 L 697 253" fill="none" stroke="#65847f" stroke-width="2" stroke-dasharray="6 5" marker-end="url(#arrow)"/>
<path d="M 812 204 L 856 204" fill="none" stroke="#65847f" stroke-width="2" marker-end="url(#arrow)"/>
<path d="M 971 253 L 971 433" fill="none" stroke="#65847f" stroke-width="2" marker-end="url(#arrow)"/>
<path d="M 149 433 L 149 418 L 971 418 L 971 433" fill="none" stroke="#65847f" stroke-width="2" marker-end="url(#arrow)"/>
<rect x="34" y="155" width="230" height="98" rx="10" fill="#f1eee7" stroke="#867a67" stroke-opacity=".45"/>
<rect x="34" y="168" width="4" height="25" rx="2" fill="#867a67"/>
<text x="47" y="179" font-family="DejaVu Sans,sans-serif" font-size="15" font-weight="bold" fill="#867a67">Training features</text>
<text x="47" y="202" font-family="DejaVu Sans,sans-serif" font-size="14" font-weight="normal" fill="#193a3a">Fit transforms; pretrain</text>
<text x="47" y="220" font-family="DejaVu Sans,sans-serif" font-size="14" font-weight="normal" fill="#193a3a">without y</text>
<rect x="308" y="155" width="230" height="98" rx="10" fill="#e6f3f0" stroke="#14766c" stroke-opacity=".45"/>
<rect x="308" y="168" width="4" height="25" rx="2" fill="#14766c"/>
<text x="321" y="179" font-family="DejaVu Sans,sans-serif" font-size="15" font-weight="bold" fill="#14766c">SSL initialization</text>
<text x="321" y="202" font-family="DejaVu Sans,sans-serif" font-size="14" font-weight="normal" fill="#193a3a">SCARF pretraining → same</text>
<text x="321" y="220" font-family="DejaVu Sans,sans-serif" font-size="14" font-weight="normal" fill="#193a3a">encoder</text>
<rect x="308" y="294" width="230" height="98" rx="10" fill="#e6f3f0" stroke="#14766c" stroke-opacity=".45"/>
<rect x="308" y="307" width="4" height="25" rx="2" fill="#14766c"/>
<text x="321" y="318" font-family="DejaVu Sans,sans-serif" font-size="15" font-weight="bold" fill="#14766c">Scratch initialization</text>
<text x="321" y="341" font-family="DejaVu Sans,sans-serif" font-size="14" font-weight="normal" fill="#193a3a">Same supervised architecture</text>
<rect x="582" y="155" width="230" height="98" rx="10" fill="#e6f3f0" stroke="#14766c" stroke-opacity=".45"/>
<rect x="582" y="168" width="4" height="25" rx="2" fill="#14766c"/>
<text x="595" y="179" font-family="DejaVu Sans,sans-serif" font-size="15" font-weight="bold" fill="#14766c">Matched supervised fits</text>
<text x="595" y="202" font-family="DejaVu Sans,sans-serif" font-size="14" font-weight="normal" fill="#193a3a">Identical label subset per</text>
<text x="595" y="220" font-family="DejaVu Sans,sans-serif" font-size="14" font-weight="normal" fill="#193a3a">budget</text>
<rect x="582" y="294" width="230" height="98" rx="10" fill="#f1eee7" stroke="#867a67" stroke-opacity=".45"/>
<rect x="582" y="307" width="4" height="25" rx="2" fill="#867a67"/>
<text x="595" y="318" font-family="DejaVu Sans,sans-serif" font-size="15" font-weight="bold" fill="#867a67">Validation labels</text>
<text x="595" y="341" font-family="DejaVu Sans,sans-serif" font-size="14" font-weight="normal" fill="#193a3a">Choose within declared</text>
<text x="595" y="359" font-family="DejaVu Sans,sans-serif" font-size="14" font-weight="normal" fill="#193a3a">budgets</text>
<rect x="856" y="155" width="230" height="98" rx="10" fill="#eeebfa" stroke="#7460a2" stroke-opacity=".45"/>
<rect x="856" y="168" width="4" height="25" rx="2" fill="#7460a2"/>
<text x="869" y="179" font-family="DejaVu Sans,sans-serif" font-size="15" font-weight="bold" fill="#7460a2">Once-frozen test scores</text>
<text x="869" y="202" font-family="DejaVu Sans,sans-serif" font-size="14" font-weight="normal" fill="#193a3a">Δseed(b) = SSL − scratch</text>
<rect x="34" y="433" width="230" height="98" rx="10" fill="#f1eee7" stroke="#867a67" stroke-opacity=".45"/>
<rect x="34" y="446" width="4" height="25" rx="2" fill="#867a67"/>
<text x="47" y="457" font-family="DejaVu Sans,sans-serif" font-size="15" font-weight="bold" fill="#867a67">Label ledger</text>
<text x="47" y="480" font-family="DejaVu Sans,sans-serif" font-size="14" font-weight="normal" fill="#193a3a">Training labels + validation</text>
<text x="47" y="498" font-family="DejaVu Sans,sans-serif" font-size="14" font-weight="normal" fill="#193a3a">labels</text>
<rect x="856" y="433" width="230" height="98" rx="10" fill="#eeebfa" stroke="#7460a2" stroke-opacity=".45"/>
<rect x="856" y="446" width="4" height="25" rx="2" fill="#7460a2"/>
<text x="869" y="457" font-family="DejaVu Sans,sans-serif" font-size="15" font-weight="bold" fill="#7460a2">Gain versus budget</text>
<text x="869" y="480" font-family="DejaVu Sans,sans-serif" font-size="14" font-weight="normal" fill="#193a3a">Paired gains; ties and</text>
<text x="869" y="498" font-family="DejaVu Sans,sans-serif" font-size="14" font-weight="normal" fill="#193a3a">brackets</text>
<line x1="34" y1="567" x2="1086" y2="567" stroke="#d5ded8"/>
<circle cx="40" cy="590" r="5" fill="#867a67"/>
<text x="53" y="595" font-family="DejaVu Sans,sans-serif" font-size="13" font-weight="normal" fill="#526b66">Data / fitted state</text>
<circle cx="260" cy="590" r="5" fill="#14766c"/>
<text x="273" y="595" font-family="DejaVu Sans,sans-serif" font-size="13" font-weight="normal" fill="#526b66">Learned computation</text>
<circle cx="480" cy="590" r="5" fill="#b06122"/>
<text x="493" y="595" font-family="DejaVu Sans,sans-serif" font-size="13" font-weight="normal" fill="#526b66">Training objective</text>
<circle cx="700" cy="590" r="5" fill="#7460a2"/>
<text x="713" y="595" font-family="DejaVu Sans,sans-serif" font-size="13" font-weight="normal" fill="#526b66">Readout / prediction</text>
<text x="34" y="620" font-family="DejaVu Sans,sans-serif" font-size="13" font-weight="normal" fill="#526b66">This is an experimental design, not a new model. A sign change across tested budgets does not identify a universal threshold.</text>
</svg>