<svg xmlns="http://www.w3.org/2000/svg" width="1120" height="650" viewBox="0 0 1120 650" role="img" aria-labelledby="title desc">
<title id="title">Link prediction · keep messages separate from targets</title><desc id="desc">A candidate edge is an output question; its hidden existence must not enter messages. This local dot-product path is symmetric: s(u,v)=s(v,u). Candidate sampling and tie rules are part of the measured task.</desc>
<defs><marker id="arrow" viewBox="0 0 10 10" refX="9" refY="5" markerWidth="6" markerHeight="6" orient="auto-start-reverse"><path d="M 0 0 L 10 5 L 0 10 z" fill="#65847f"/></marker></defs>
<rect width="1120" height="650" rx="18" fill="#fcfaf6"/>
<rect x="0" y="0" width="1120" height="6" rx="3" fill="#14766c"/>
<text x="34" y="45" font-family="DejaVu Sans,sans-serif" font-size="12" font-weight="bold" fill="#647b75">RELATIONAL LEARNING  /  MODEL &amp; INFORMATION FLOW</text>
<text x="34" y="83" font-family="DejaVu Sans,sans-serif" font-size="27" font-weight="bold" fill="#193a3a">Link prediction · keep messages separate from targets</text>
<text x="34" y="114" font-family="DejaVu Sans,sans-serif" font-size="16" font-weight="normal" fill="#526b66">A candidate edge is an output question; its hidden existence must not enter messages.</text>
<path d="M 264 204 L 308 204" fill="none" stroke="#65847f" stroke-width="2" marker-end="url(#arrow)"/>
<path d="M 538 204 L 582 204" fill="none" stroke="#65847f" stroke-width="2" marker-end="url(#arrow)"/>
<path d="M 812 204 L 856 204" fill="none" stroke="#65847f" stroke-width="2" marker-end="url(#arrow)"/>
<path d="M 538 482 L 582 482" fill="none" stroke="#65847f" stroke-width="2" marker-end="url(#arrow)"/>
<path d="M 856 204 C 834.0 204, 834.0 482, 812 482" fill="none" stroke="#65847f" stroke-width="2" marker-end="url(#arrow)"/>
<path d="M 971 253 L 971 433" fill="none" stroke="#65847f" stroke-width="2" marker-end="url(#arrow)"/>
<rect x="34" y="155" width="230" height="98" rx="10" fill="#f1eee7" stroke="#867a67" stroke-opacity=".45"/>
<rect x="34" y="168" width="4" height="25" rx="2" fill="#867a67"/>
<text x="47" y="179" font-family="DejaVu Sans,sans-serif" font-size="15" font-weight="bold" fill="#867a67">Observed training graph</text>
<text x="47" y="202" font-family="DejaVu Sans,sans-serif" font-size="14" font-weight="normal" fill="#193a3a">Remove held-out positives</text>
<text x="47" y="220" font-family="DejaVu Sans,sans-serif" font-size="14" font-weight="normal" fill="#193a3a">both ways</text>
<rect x="308" y="155" width="230" height="98" rx="10" fill="#e6f3f0" stroke="#14766c" stroke-opacity=".45"/>
<rect x="308" y="168" width="4" height="25" rx="2" fill="#14766c"/>
<text x="321" y="179" font-family="DejaVu Sans,sans-serif" font-size="15" font-weight="bold" fill="#14766c">Shared node GCN</text>
<text x="321" y="202" font-family="DejaVu Sans,sans-serif" font-size="14" font-weight="normal" fill="#193a3a">Compute z for all eligible</text>
<text x="321" y="220" font-family="DejaVu Sans,sans-serif" font-size="14" font-weight="normal" fill="#193a3a">nodes</text>
<rect x="582" y="155" width="230" height="98" rx="10" fill="#e6f3f0" stroke="#14766c" stroke-opacity=".45"/>
<rect x="582" y="168" width="4" height="25" rx="2" fill="#14766c"/>
<text x="595" y="179" font-family="DejaVu Sans,sans-serif" font-size="15" font-weight="bold" fill="#14766c">Gather pair endpoints</text>
<text x="595" y="202" font-family="DejaVu Sans,sans-serif" font-size="14" font-weight="normal" fill="#193a3a">For each (u,v), obtain zᵤ</text>
<text x="595" y="220" font-family="DejaVu Sans,sans-serif" font-size="14" font-weight="normal" fill="#193a3a">and zᵥ</text>
<rect x="856" y="155" width="230" height="98" rx="10" fill="#eeebfa" stroke="#7460a2" stroke-opacity=".45"/>
<rect x="856" y="168" width="4" height="25" rx="2" fill="#7460a2"/>
<text x="869" y="179" font-family="DejaVu Sans,sans-serif" font-size="15" font-weight="bold" fill="#7460a2">Dot-product decoder</text>
<text x="869" y="202" font-family="DejaVu Sans,sans-serif" font-size="14" font-weight="normal" fill="#193a3a">s(u,v) = sum(zᵤ ⊙ zᵥ)</text>
<rect x="308" y="433" width="230" height="98" rx="10" fill="#f1eee7" stroke="#867a67" stroke-opacity=".45"/>
<rect x="308" y="446" width="4" height="25" rx="2" fill="#867a67"/>
<text x="321" y="457" font-family="DejaVu Sans,sans-serif" font-size="15" font-weight="bold" fill="#867a67">Supervision pairs</text>
<text x="321" y="480" font-family="DejaVu Sans,sans-serif" font-size="14" font-weight="normal" fill="#193a3a">Observed positives + sampled</text>
<text x="321" y="498" font-family="DejaVu Sans,sans-serif" font-size="14" font-weight="normal" fill="#193a3a">negatives</text>
<rect x="582" y="433" width="230" height="98" rx="10" fill="#fff0df" stroke="#b06122" stroke-opacity=".45"/>
<rect x="582" y="446" width="4" height="25" rx="2" fill="#b06122"/>
<text x="595" y="457" font-family="DejaVu Sans,sans-serif" font-size="15" font-weight="bold" fill="#b06122">BCE with logits</text>
<text x="595" y="480" font-family="DejaVu Sans,sans-serif" font-size="14" font-weight="normal" fill="#193a3a">Train pair labels only</text>
<rect x="856" y="433" width="230" height="98" rx="10" fill="#eeebfa" stroke="#7460a2" stroke-opacity=".45"/>
<rect x="856" y="446" width="4" height="25" rx="2" fill="#7460a2"/>
<text x="869" y="457" font-family="DejaVu Sans,sans-serif" font-size="15" font-weight="bold" fill="#7460a2">Evaluation candidates</text>
<text x="869" y="480" font-family="DejaVu Sans,sans-serif" font-size="14" font-weight="normal" fill="#193a3a">Scores → ranking under a</text>
<text x="869" y="498" font-family="DejaVu Sans,sans-serif" font-size="14" font-weight="normal" fill="#193a3a">fixed rule</text>
<line x1="34" y1="567" x2="1086" y2="567" stroke="#d5ded8"/>
<circle cx="40" cy="590" r="5" fill="#867a67"/>
<text x="53" y="595" font-family="DejaVu Sans,sans-serif" font-size="13" font-weight="normal" fill="#526b66">Data / fitted state</text>
<circle cx="260" cy="590" r="5" fill="#14766c"/>
<text x="273" y="595" font-family="DejaVu Sans,sans-serif" font-size="13" font-weight="normal" fill="#526b66">Learned computation</text>
<circle cx="480" cy="590" r="5" fill="#b06122"/>
<text x="493" y="595" font-family="DejaVu Sans,sans-serif" font-size="13" font-weight="normal" fill="#526b66">Training objective</text>
<circle cx="700" cy="590" r="5" fill="#7460a2"/>
<text x="713" y="595" font-family="DejaVu Sans,sans-serif" font-size="13" font-weight="normal" fill="#526b66">Readout / prediction</text>
<text x="34" y="620" font-family="DejaVu Sans,sans-serif" font-size="13" font-weight="normal" fill="#526b66">This local dot-product path is symmetric: s(u,v)=s(v,u). Candidate sampling and tie rules are part of the measured task.</text>
</svg>