<?xml version="1.0" encoding="utf-8" standalone="no"?>
<!DOCTYPE svg PUBLIC "-//W3C//DTD SVG 1.1//EN"
  "http://www.w3.org/Graphics/SVG/1.1/DTD/svg11.dtd">
<svg xmlns:xlink="http://www.w3.org/1999/xlink" width="572.4pt" height="280.512pt" viewBox="0 0 572.4 280.512" xmlns="http://www.w3.org/2000/svg" version="1.1">
 <metadata>
  <rdf:RDF xmlns:dc="http://purl.org/dc/elements/1.1/" xmlns:cc="http://creativecommons.org/ns#" xmlns:rdf="http://www.w3.org/1999/02/22-rdf-syntax-ns#">
   <cc:Work>
    <dc:type rdf:resource="http://purl.org/dc/dcmitype/StillImage"/>
    <dc:format>image/svg+xml</dc:format>
    <dc:creator>
     <cc:Agent>
      <dc:title>Matplotlib v3.11.0, https://matplotlib.org/</dc:title>
     </cc:Agent>
    </dc:creator>
   </cc:Work>
  </rdf:RDF>
 </metadata>
 <defs>
  <style type="text/css">*{stroke-linejoin: round; stroke-linecap: butt}</style>
 </defs>
 <g id="figure_1">
  <g id="patch_1">
   <path d="M 0 280.512 
L 572.4 280.512 
L 572.4 0 
L 0 0 
z
" style="fill: #fbfcf9"/>
  </g>
  <g id="axes_1">
   <g id="patch_2">
    <path d="M 29.52 251.6904 
L 263.88 251.6904 
Q 267.228 251.6904 267.228 248.364 
L 267.228 187.38 
Q 267.228 184.0536 263.88 184.0536 
L 29.52 184.0536 
Q 26.172 184.0536 26.172 187.38 
L 26.172 248.364 
Q 26.172 251.6904 29.52 251.6904 
z
" clip-path="url(#pb9724925c4)" style="fill: #ffffff; stroke: #b65b2c; stroke-width: 1.5; stroke-linejoin: miter"/>
   </g>
   <g id="patch_3">
    <path d="M 286.2 251.6904 
L 537.3 251.6904 
Q 540.648 251.6904 540.648 248.364 
L 540.648 187.38 
Q 540.648 184.0536 537.3 184.0536 
L 286.2 184.0536 
Q 282.852 184.0536 282.852 187.38 
L 282.852 248.364 
Q 282.852 251.6904 286.2 251.6904 
z
" clip-path="url(#pb9724925c4)" style="fill: #ffffff; stroke: #087e82; stroke-width: 1.5; stroke-linejoin: miter"/>
   </g>
   <g id="line2d_1">
    <path d="M 43.47 118.08 
L 509.958 118.08 
" clip-path="url(#pb9724925c4)" style="fill: none; stroke: #647579; stroke-width: 1.5; stroke-linecap: square"/>
   </g>
   <g id="line2d_2">
    <defs>
     <path id="m30e0182f7a" d="M 0 5 
C 1.326016 5 2.597899 4.473168 3.535534 3.535534 
C 4.473168 2.597899 5 1.326016 5 0 
C 5 -1.326016 4.473168 -2.597899 3.535534 -3.535534 
C 2.597899 -4.473168 1.326016 -5 0 -5 
C -1.326016 -5 -2.597899 -4.473168 -3.535534 -3.535534 
C -4.473168 -2.597899 -5 -1.326016 -5 0 
C -5 1.326016 -4.473168 2.597899 -3.535534 3.535534 
C -2.597899 4.473168 -1.326016 5 0 5 
z
" style="stroke: #087e82"/>
    </defs>
    <g clip-path="url(#pb9724925c4)">
     <use xlink:href="#m30e0182f7a" x="128.286" y="118.08" style="fill: #087e82; stroke: #087e82"/>
    </g>
   </g>
   <g id="line2d_3">
    <defs>
     <path id="m57ebac60a2" d="M 0 5 
C 1.326016 5 2.597899 4.473168 3.535534 3.535534 
C 4.473168 2.597899 5 1.326016 5 0 
C 5 -1.326016 4.473168 -2.597899 3.535534 -3.535534 
C 2.597899 -4.473168 1.326016 -5 0 -5 
C -1.326016 -5 -2.597899 -4.473168 -3.535534 -3.535534 
C -4.473168 -2.597899 -5 -1.326016 -5 0 
C -5 1.326016 -4.473168 2.597899 -3.535534 3.535534 
C -2.597899 4.473168 -1.326016 5 0 5 
z
" style="stroke: #233b45"/>
    </defs>
    <g clip-path="url(#pb9724925c4)">
     <use xlink:href="#m57ebac60a2" x="255.51" y="118.08" style="fill: #233b45; stroke: #233b45"/>
    </g>
   </g>
   <g id="line2d_4">
    <defs>
     <path id="m334e2e7505" d="M 0 5 
C 1.326016 5 2.597899 4.473168 3.535534 3.535534 
C 4.473168 2.597899 5 1.326016 5 0 
C 5 -1.326016 4.473168 -2.597899 3.535534 -3.535534 
C 2.597899 -4.473168 1.326016 -5 0 -5 
C -1.326016 -5 -2.597899 -4.473168 -3.535534 -3.535534 
C -4.473168 -2.597899 -5 -1.326016 -5 0 
C -5 1.326016 -4.473168 2.597899 -3.535534 3.535534 
C -2.597899 4.473168 -1.326016 5 0 5 
z
" style="stroke: #b65b2c"/>
    </defs>
    <g clip-path="url(#pb9724925c4)">
     <use xlink:href="#m334e2e7505" x="340.326" y="118.08" style="fill: #b65b2c; stroke: #b65b2c"/>
    </g>
   </g>
   <g id="line2d_5">
    <path d="M 255.51 161.54496 
L 255.51 68.40576 
" clip-path="url(#pb9724925c4)" style="fill: none; stroke-dasharray: 5.55,2.4; stroke-dashoffset: 0; stroke: #233b45; stroke-width: 1.5"/>
   </g>
   <g id="text_1">
    <text style="font-weight: 700; font-size: 18px; font-family: 'DejaVu Sans'; text-anchor: start; fill: #233b45" x="18.36" y="26.604" transform="rotate(-0 18.36 26.604)">A past event can still be future knowledge</text>
   </g>
   <g id="text_2">
    <text style="font-size: 11px; font-family: 'DejaVu Sans'; text-anchor: start; fill: #647579" x="18.36" y="47.1168" transform="rotate(-0 18.36 47.1168)">Synthetic immutable event · event day 2, arrival day 7, prediction day 5</text>
   </g>
   <g id="text_3">
    <text style="font-size: 12px; font-family: 'DejaVu Sans'; text-anchor: middle; fill: #087e82" x="128.286" y="98.676" transform="rotate(-0 128.286 98.676)">Event occurs</text>
   </g>
   <g id="text_4">
    <text style="font-size: 12px; font-family: 'DejaVu Sans'; text-anchor: middle; fill: #087e82" x="128.286" y="139.1472" transform="rotate(-0 128.286 139.1472)">day 2</text>
   </g>
   <g id="text_5">
    <text style="font-size: 12px; font-family: 'DejaVu Sans'; text-anchor: middle; fill: #233b45" x="255.51" y="98.676" transform="rotate(-0 255.51 98.676)">Predict</text>
   </g>
   <g id="text_6">
    <text style="font-size: 12px; font-family: 'DejaVu Sans'; text-anchor: middle; fill: #233b45" x="255.51" y="139.1472" transform="rotate(-0 255.51 139.1472)">day 5</text>
   </g>
   <g id="text_7">
    <text style="font-size: 12px; font-family: 'DejaVu Sans'; text-anchor: middle; fill: #b65b2c" x="340.326" y="98.676" transform="rotate(-0 340.326 98.676)">Row arrives</text>
   </g>
   <g id="text_8">
    <text style="font-size: 12px; font-family: 'DejaVu Sans'; text-anchor: middle; fill: #b65b2c" x="340.326" y="139.1472" transform="rotate(-0 340.326 139.1472)">day 7</text>
   </g>
   <g id="text_9">
    <text style="font-size: 11px; font-family: 'DejaVu Sans'; fill: #233b45" transform="translate(36.216 206.697512)">Event-only filter: 2 ≤ 5 → yes</text>
    <text style="font-size: 11px; font-family: 'DejaVu Sans'; fill: #233b45" transform="translate(36.216 224.847512)">It incorrectly admits this record.</text>
   </g>
   <g id="text_10">
    <text style="font-size: 11px; font-family: 'DejaVu Sans'; fill: #233b45" transform="translate(292.896 207.763137)">Two-clock filter: 2 ≤ 5 AND 7 ≤ 5</text>
    <text style="font-size: 11px; font-family: 'DejaVu Sans'; fill: #233b45" transform="translate(292.896 225.913137)">False → exclude the record.</text>
   </g>
  </g>
 </g>
 <defs>
  <clipPath id="pb9724925c4">
   <rect x="7.2" y="7.2" width="558" height="266.112"/>
  </clipPath>
 </defs>
</svg>
